<?xml version="1.0" encoding="utf-8"?>
<!-- Generator: Adobe Illustrator 16.0.4, SVG Export Plug-In . SVG Version: 6.00 Build 0)  -->
<!DOCTYPE svg PUBLIC "-//W3C//DTD SVG 1.1//EN" "http://www.w3.org/Graphics/SVG/1.1/DTD/svg11.dtd">
<svg version="1.1" id="Layer_1" xmlns="http://www.w3.org/2000/svg" xmlns:xlink="http://www.w3.org/1999/xlink" x="0px" y="0px"
	 width="864px" height="864px" viewBox="0 0 864 864" enable-background="new 0 0 864 864" xml:space="preserve">
<circle fill="none" stroke="#FF0000" stroke-width="0.072" stroke-miterlimit="10" cx="432" cy="432" r="405"/>
<circle fill="none" stroke="#FF0000" stroke-width="0.072" stroke-miterlimit="10" cx="432" cy="432" r="11.25"/>
<circle fill="none" stroke="#FF0000" stroke-width="0.072" stroke-miterlimit="10" cx="432.001" cy="108.001" r="2.835"/>
<circle fill="none" stroke="#FF0000" stroke-width="0.072" stroke-miterlimit="10" cx="300.219" cy="136.012" r="2.835"/>
<circle fill="none" stroke="#FF0000" stroke-width="0.072" stroke-miterlimit="10" cx="191.223" cy="215.202" r="2.835"/>
<circle fill="none" stroke="#FF0000" stroke-width="0.072" stroke-miterlimit="10" cx="123.859" cy="331.878" r="2.835"/>
<path fill="none" stroke="#FF0000" stroke-width="0.072" stroke-miterlimit="10" d="M112.595,465.57
	c0.162,1.557-0.966,2.951-2.521,3.112c-1.559,0.166-2.953-0.963-3.116-2.521c-0.165-1.557,0.966-2.951,2.521-3.112
	C111.037,462.885,112.432,464.015,112.595,465.57z"/>
<path fill="none" stroke="#FF0000" stroke-width="0.072" stroke-miterlimit="10" d="M153.863,592.582
	c0.78,1.355,0.317,3.089-1.038,3.869c-1.355,0.786-3.089,0.322-3.872-1.036c-0.784-1.354-0.317-3.089,1.037-3.868
	C151.348,590.762,153.081,591.229,153.863,592.582z"/>
<path fill="none" stroke="#FF0000" stroke-width="0.072" stroke-miterlimit="10" d="M243.224,691.828
	c1.265,0.921,1.547,2.691,0.626,3.956c-0.919,1.27-2.69,1.551-3.959,0.628c-1.268-0.918-1.546-2.692-0.626-3.955
	C240.186,691.188,241.959,690.908,243.224,691.828z"/>
<path fill="none" stroke="#FF0000" stroke-width="0.072" stroke-miterlimit="10" d="M365.226,746.146
	c1.53,0.326,2.508,1.83,2.182,3.359c-0.323,1.533-1.827,2.511-3.361,2.185c-1.531-0.323-2.508-1.831-2.181-3.358
	C362.19,746.798,363.696,745.821,365.226,746.146z"/>
<path fill="none" stroke="#FF0000" stroke-width="0.072" stroke-miterlimit="10" d="M498.773,746.146
	c1.529-0.323,3.035,0.651,3.359,2.183c0.328,1.532-0.647,3.037-2.184,3.362c-1.529,0.326-3.035-0.653-3.357-2.183
	C496.265,747.977,497.244,746.472,498.773,746.146z"/>
<path fill="none" stroke="#FF0000" stroke-width="0.072" stroke-miterlimit="10" d="M620.775,691.828
	c1.267-0.918,3.039-0.639,3.957,0.627c0.923,1.267,0.644,3.038-0.626,3.96c-1.266,0.921-3.039,0.638-3.955-0.628
	C619.229,694.521,619.511,692.747,620.775,691.828z"/>
<path fill="none" stroke="#FF0000" stroke-width="0.072" stroke-miterlimit="10" d="M710.137,592.583
	c0.784-1.354,2.518-1.819,3.87-1.037c1.357,0.782,1.823,2.514,1.038,3.872c-0.78,1.356-2.517,1.819-3.868,1.035
	C709.817,595.672,709.354,593.938,710.137,592.583z"/>
<path fill="none" stroke="#FF0000" stroke-width="0.072" stroke-miterlimit="10" d="M751.405,465.571
	c0.166-1.557,1.559-2.687,3.112-2.521c1.56,0.163,2.688,1.556,2.523,3.115c-0.161,1.557-1.559,2.686-3.112,2.519
	C752.37,468.523,751.241,467.126,751.405,465.571z"/>
<path fill="none" stroke="#FF0000" stroke-width="0.072" stroke-miterlimit="10" d="M737.445,332.755
	c-0.48-1.489,0.331-3.087,1.818-3.57c1.49-0.484,3.088,0.327,3.572,1.82c0.486,1.487-0.332,3.087-1.818,3.566
	C739.528,335.06,737.929,334.242,737.445,332.755z"/>
<path fill="none" stroke="#FF0000" stroke-width="0.072" stroke-miterlimit="10" d="M670.671,217.099
	c-1.044-1.165-0.953-2.955,0.211-4.001c1.164-1.049,2.953-0.957,4.004,0.21c1.05,1.161,0.951,2.955-0.211,3.998
	C673.512,218.357,671.719,218.262,670.671,217.099z"/>
<path fill="none" stroke="#FF0000" stroke-width="0.072" stroke-miterlimit="10" d="M562.629,138.602
	c-1.428-0.639-2.073-2.312-1.436-3.741c0.638-1.432,2.31-2.076,3.744-1.437c1.43,0.634,2.068,2.312,1.433,3.738
	C565.735,138.596,564.059,139.238,562.629,138.602z"/>
</svg>
