<?xml version="1.0" encoding="utf-8"?>
<!-- Generator: Adobe Illustrator 16.0.4, SVG Export Plug-In . SVG Version: 6.00 Build 0)  -->
<!DOCTYPE svg PUBLIC "-//W3C//DTD SVG 1.1//EN" "http://www.w3.org/Graphics/SVG/1.1/DTD/svg11.dtd">
<svg version="1.1" id="Layer_1" xmlns="http://www.w3.org/2000/svg" xmlns:xlink="http://www.w3.org/1999/xlink" x="0px" y="0px"
	 width="864px" height="864px" viewBox="0 0 864 864" enable-background="new 0 0 864 864" xml:space="preserve">
<circle fill="#FFFFFF" stroke="#FF0000" stroke-width="0.072" stroke-miterlimit="10" cx="432" cy="432" r="405"/>
<circle fill="#FFFFFF" stroke="#FF0000" stroke-width="0.072" stroke-miterlimit="10" cx="432" cy="432" r="11.25"/>
<circle fill="#FFFFFF" stroke="#FF0000" stroke-width="0.072" stroke-miterlimit="10" cx="241.558" cy="169.879" r="2.835"/>
<circle fill="#FFFFFF" stroke="#FF0000" stroke-width="0.072" stroke-miterlimit="10" cx="432" cy="108.001" r="2.835"/>
<circle fill="#FFFFFF" stroke="#FF0000" stroke-width="0.072" stroke-miterlimit="10" cx="123.859" cy="331.878" r="2.835"/>
<circle fill="#FFFFFF" stroke="#FF0000" stroke-width="0.072" stroke-miterlimit="10" cx="123.859" cy="532.121" r="2.835"/>
<circle fill="#FFFFFF" stroke="#FF0000" stroke-width="0.072" stroke-miterlimit="10" cx="241.558" cy="694.121" r="2.835"/>
<path fill="#FFFFFF" stroke="#FF0000" stroke-width="0.072" stroke-miterlimit="10" d="M432,753.163
	c1.566,0.001,2.833,1.271,2.833,2.835c0,1.565-1.268,2.835-2.832,2.836c-1.568,0-2.838-1.27-2.838-2.835
	C429.167,754.434,430.434,753.166,432,753.163z"/>
<circle fill="#FFFFFF" stroke="#FF0000" stroke-width="0.072" stroke-miterlimit="10" cx="622.442" cy="694.12" r="2.835"/>
<circle fill="#FFFFFF" stroke="#FF0000" stroke-width="0.072" stroke-miterlimit="10" cx="740.142" cy="532.12" r="2.835"/>
<path fill="#FFFFFF" stroke="#FF0000" stroke-width="0.072" stroke-miterlimit="10" d="M737.445,332.754
	c-0.484-1.49,0.332-3.086,1.82-3.57c1.486-0.484,3.086,0.33,3.572,1.818c0.484,1.49-0.332,3.09-1.82,3.573
	C739.527,335.057,737.93,334.243,737.445,332.754z"/>
<circle fill="#FFFFFF" stroke="#FF0000" stroke-width="0.072" stroke-miterlimit="10" cx="622.441" cy="169.878" r="2.835"/>
</svg>
